<svg width="1006" height="1371" viewBox="0 0 1006 1371" fill="none" xmlns="http://www.w3.org/2000/svg">
<rect x="69" y="1006" width="879" height="364" rx="20" fill="#2C2C2C" stroke="#414141" stroke-width="2"/>
<circle cx="503" cy="591" r="130" fill="black" stroke="#3A3A3A" stroke-width="2"/>
<g clip-path="url(#clip0_17_178)">
<path d="M536.567 535.296C538.46 535.296 539.993 536.838 539.993 538.74C539.993 540.642 538.46 542.185 536.567 542.185C534.675 542.185 533.141 540.642 533.141 538.74C533.141 536.838 534.675 535.296 536.567 535.296ZM550.019 549.67C549.675 561.111 540.985 576.234 529.206 580.123C515.445 584.666 504.996 577.85 501.684 569.86C499.104 563.634 501.053 556.187 505.869 553.035C509.936 550.373 517.509 549.67 523.873 553.876C521.637 547.987 515.617 544.117 510.284 542.94C504.952 541.762 499.448 543.108 495.491 545.127C500.566 539.491 512.446 534.017 525.364 540.921C534.022 545.547 537.749 552.025 541.418 560.774C551.051 545.968 544.342 528.134 532.646 517.534C520.72 506.727 504.608 502.391 492.281 503.068C496.349 505.592 501.13 509.195 505.546 513.412C486.031 510.972 469.948 515.431 460 529.031C465.557 527.929 472.886 527.237 480.18 527.599C465.963 537.668 457.706 554.605 461.904 572.279C464.469 567.773 468.305 562.359 472.871 557.453C471.467 570.645 473.417 588.479 490.29 600C489.429 596.383 488.732 591.984 488.414 587.328C496.307 593.519 507.765 598.621 521.981 595.097C547.094 588.872 553.803 564.476 550.019 549.67Z" fill="#F36118"/>
</g>
<rect x="1" y="27" width="212" height="86" rx="15" fill="black" stroke="#3A3A3A" stroke-width="2"/>
<g filter="url(#filter0_d_17_178)">
<path d="M64.1668 92.625V87.7083C64.1668 85.1004 63.1308 82.5992 61.2867 80.7551C59.4426 78.911 56.9415 77.875 54.3335 77.875H34.6668C32.0589 77.875 29.5577 78.911 27.7136 80.7551C25.8695 82.5992 24.8335 85.1004 24.8335 87.7083V92.625M54.3335 58.2083C54.3335 63.6391 49.931 68.0417 44.5002 68.0417C39.0694 68.0417 34.6668 63.6391 34.6668 58.2083C34.6668 52.7775 39.0694 48.375 44.5002 48.375C49.931 48.375 54.3335 52.7775 54.3335 58.2083Z" stroke="#F36017" stroke-width="4" stroke-linecap="round" stroke-linejoin="round"/>
</g>
<path d="M112.182 73.2955V57.8182H116.205V84H112.182V79.5682H111.909C111.295 80.8977 110.341 82.0284 109.045 82.9602C107.75 83.8807 106.114 84.3409 104.136 84.3409C102.5 84.3409 101.045 83.983 99.7727 83.267C98.5 82.5398 97.5 81.4489 96.7727 79.9943C96.0455 78.5284 95.6818 76.6818 95.6818 74.4545V57.8182H99.7045V74.1818C99.7045 76.0909 100.239 77.6136 101.307 78.75C102.386 79.8864 103.761 80.4545 105.432 80.4545C106.432 80.4545 107.449 80.1989 108.483 79.6875C109.528 79.1761 110.403 78.392 111.108 77.3352C111.824 76.2784 112.182 74.9318 112.182 73.2955ZM142.118 63.6818L138.504 64.7045C138.277 64.1023 137.942 63.517 137.499 62.9489C137.067 62.3693 136.476 61.892 135.726 61.517C134.976 61.142 134.016 60.9545 132.845 60.9545C131.243 60.9545 129.908 61.3239 128.839 62.0625C127.783 62.7898 127.254 63.7159 127.254 64.8409C127.254 65.8409 127.618 66.6307 128.345 67.2102C129.072 67.7898 130.209 68.2727 131.754 68.6591L135.641 69.6136C137.982 70.1818 139.726 71.0511 140.874 72.2216C142.021 73.3807 142.595 74.875 142.595 76.7045C142.595 78.2045 142.163 79.5455 141.3 80.7273C140.447 81.9091 139.254 82.8409 137.72 83.5227C136.186 84.2045 134.402 84.5455 132.368 84.5455C129.697 84.5455 127.487 83.9659 125.737 82.8068C123.987 81.6477 122.879 79.9545 122.413 77.7273L126.232 76.7727C126.595 78.1818 127.283 79.2386 128.294 79.9432C129.317 80.6477 130.652 81 132.3 81C134.175 81 135.663 80.6023 136.766 79.8068C137.879 79 138.436 78.0341 138.436 76.9091C138.436 76 138.118 75.2386 137.482 74.625C136.845 74 135.868 73.5341 134.55 73.2273L130.186 72.2045C127.788 71.6364 126.027 70.7557 124.902 69.5625C123.788 68.358 123.232 66.8523 123.232 65.0455C123.232 63.5682 123.646 62.2614 124.476 61.125C125.317 59.9886 126.459 59.0966 127.902 58.4489C129.357 57.8011 131.004 57.4773 132.845 57.4773C135.436 57.4773 137.47 58.0455 138.947 59.1818C140.436 60.3182 141.493 61.8182 142.118 63.6818ZM159.628 84.5455C157.105 84.5455 154.929 83.9886 153.099 82.875C151.281 81.75 149.878 80.1818 148.889 78.1705C147.912 76.1477 147.423 73.7955 147.423 71.1136C147.423 68.4318 147.912 66.0682 148.889 64.0227C149.878 61.9659 151.253 60.3636 153.014 59.2159C154.787 58.0568 156.855 57.4773 159.219 57.4773C160.582 57.4773 161.929 57.7045 163.259 58.1591C164.588 58.6136 165.798 59.3523 166.889 60.375C167.98 61.3864 168.849 62.7273 169.497 64.3977C170.145 66.0682 170.469 68.125 170.469 70.5682V72.2727H150.287V68.7955H166.378C166.378 67.3182 166.082 66 165.491 64.8409C164.912 63.6818 164.082 62.767 163.003 62.0966C161.935 61.4261 160.673 61.0909 159.219 61.0909C157.616 61.0909 156.23 61.4886 155.06 62.2841C153.901 63.0682 153.009 64.0909 152.384 65.3523C151.759 66.6136 151.446 67.9659 151.446 69.4091V71.7273C151.446 73.7045 151.787 75.3807 152.469 76.7557C153.162 78.1193 154.122 79.1591 155.349 79.875C156.577 80.5795 158.003 80.9318 159.628 80.9318C160.685 80.9318 161.639 80.7841 162.491 80.4886C163.355 80.1818 164.099 79.7273 164.724 79.125C165.349 78.5114 165.832 77.75 166.173 76.8409L170.06 77.9318C169.651 79.25 168.963 80.4091 167.997 81.4091C167.031 82.3977 165.838 83.1705 164.418 83.7273C162.997 84.2727 161.401 84.5455 159.628 84.5455ZM176.588 84V57.8182H180.474V61.7727H180.747C181.224 60.4773 182.088 59.4261 183.338 58.6193C184.588 57.8125 185.997 57.4091 187.565 57.4091C187.861 57.4091 188.23 57.4148 188.673 57.4261C189.116 57.4375 189.452 57.4545 189.679 57.4773V61.5682C189.543 61.5341 189.23 61.483 188.741 61.4148C188.264 61.3352 187.759 61.2955 187.224 61.2955C185.952 61.2955 184.815 61.5625 183.815 62.0966C182.827 62.6193 182.043 63.3466 181.463 64.2784C180.895 65.1989 180.611 66.25 180.611 67.4318V84H176.588Z" fill="white"/>
<rect x="136" y="1069" width="276" height="110" rx="15" fill="black" stroke="#3A3A3A" stroke-width="2"/>
<path d="M294.909 1106.09V1141H290.818L271.795 1113.59H271.455V1141H267.227V1106.09H271.318L290.409 1133.57H290.75V1106.09H294.909ZM313.8 1141.55C311.277 1141.55 309.101 1140.99 307.271 1139.88C305.453 1138.75 304.05 1137.18 303.061 1135.17C302.084 1133.15 301.595 1130.8 301.595 1128.11C301.595 1125.43 302.084 1123.07 303.061 1121.02C304.05 1118.97 305.425 1117.36 307.186 1116.22C308.959 1115.06 311.027 1114.48 313.391 1114.48C314.754 1114.48 316.101 1114.7 317.43 1115.16C318.76 1115.61 319.97 1116.35 321.061 1117.38C322.152 1118.39 323.021 1119.73 323.669 1121.4C324.317 1123.07 324.641 1125.12 324.641 1127.57V1129.27H304.459V1125.8H320.55C320.55 1124.32 320.254 1123 319.663 1121.84C319.084 1120.68 318.254 1119.77 317.175 1119.1C316.107 1118.43 314.845 1118.09 313.391 1118.09C311.788 1118.09 310.402 1118.49 309.232 1119.28C308.072 1120.07 307.18 1121.09 306.555 1122.35C305.93 1123.61 305.618 1124.97 305.618 1126.41V1128.73C305.618 1130.7 305.959 1132.38 306.641 1133.76C307.334 1135.12 308.294 1136.16 309.521 1136.88C310.749 1137.58 312.175 1137.93 313.8 1137.93C314.857 1137.93 315.811 1137.78 316.663 1137.49C317.527 1137.18 318.271 1136.73 318.896 1136.12C319.521 1135.51 320.004 1134.75 320.345 1133.84L324.232 1134.93C323.822 1136.25 323.135 1137.41 322.169 1138.41C321.203 1139.4 320.01 1140.17 318.589 1140.73C317.169 1141.27 315.572 1141.55 313.8 1141.55ZM336.692 1141L328.714 1114.82H332.942L338.601 1134.86H338.874L344.464 1114.82H348.76L354.283 1134.8H354.555L360.214 1114.82H364.442L356.464 1141H352.51L346.783 1120.89H346.374L340.646 1141H336.692ZM381.146 1114.82V1118.23H367.578V1114.82H381.146ZM371.533 1108.55H375.555V1133.5C375.555 1134.64 375.72 1135.49 376.05 1136.06C376.391 1136.61 376.822 1136.99 377.345 1137.18C377.879 1137.36 378.442 1137.45 379.033 1137.45C379.476 1137.45 379.839 1137.43 380.124 1137.39C380.408 1137.33 380.635 1137.28 380.805 1137.25L381.624 1140.86C381.351 1140.97 380.97 1141.07 380.482 1141.17C379.993 1141.28 379.374 1141.34 378.624 1141.34C377.487 1141.34 376.374 1141.1 375.283 1140.61C374.203 1140.12 373.305 1139.38 372.589 1138.38C371.885 1137.38 371.533 1136.11 371.533 1134.59V1108.55Z" fill="white"/>
<rect x="1" y="1" width="269" height="112" rx="15" fill="black" stroke="#3A3A3A" stroke-width="2"/>
<g filter="url(#filter1_d_17_178)">
<path d="M84.1668 78.625V73.7083C84.1668 71.1004 83.1308 68.5992 81.2867 66.7551C79.4426 64.911 76.9415 63.875 74.3335 63.875H54.6668C52.0589 63.875 49.5577 64.911 47.7136 66.7551C45.8695 68.5992 44.8335 71.1004 44.8335 73.7083V78.625M74.3335 44.2083C74.3335 49.6391 69.931 54.0417 64.5002 54.0417C59.0694 54.0417 54.6668 49.6391 54.6668 44.2083C54.6668 38.7775 59.0694 34.375 64.5002 34.375C69.931 34.375 74.3335 38.7775 74.3335 44.2083Z" stroke="#F36017" stroke-width="4" stroke-linecap="round" stroke-linejoin="round"/>
</g>
<path d="M159.682 56.5455C159.682 60.2273 159.017 63.4091 157.688 66.0909C156.358 68.7727 154.534 70.8409 152.216 72.2955C149.898 73.75 147.25 74.4773 144.273 74.4773C141.295 74.4773 138.648 73.75 136.33 72.2955C134.011 70.8409 132.188 68.7727 130.858 66.0909C129.528 63.4091 128.864 60.2273 128.864 56.5455C128.864 52.8636 129.528 49.6818 130.858 47C132.188 44.3182 134.011 42.25 136.33 40.7955C138.648 39.3409 141.295 38.6136 144.273 38.6136C147.25 38.6136 149.898 39.3409 152.216 40.7955C154.534 42.25 156.358 44.3182 157.688 47C159.017 49.6818 159.682 52.8636 159.682 56.5455ZM155.591 56.5455C155.591 53.5227 155.085 50.9716 154.074 48.892C153.074 46.8125 151.716 45.2386 150 44.1705C148.295 43.1023 146.386 42.5682 144.273 42.5682C142.159 42.5682 140.244 43.1023 138.528 44.1705C136.824 45.2386 135.466 46.8125 134.455 48.892C133.455 50.9716 132.955 53.5227 132.955 56.5455C132.955 59.5682 133.455 62.1193 134.455 64.1989C135.466 66.2784 136.824 67.8523 138.528 68.9205C140.244 69.9886 142.159 70.5227 144.273 70.5227C146.386 70.5227 148.295 69.9886 150 68.9205C151.716 67.8523 153.074 66.2784 154.074 64.1989C155.085 62.1193 155.591 59.5682 155.591 56.5455ZM170.267 39.0909V74H166.244V39.0909H170.267ZM177.635 74V47.8182H181.521V51.9091H181.862C182.408 50.5114 183.288 49.4261 184.504 48.6534C185.72 47.8693 187.18 47.4773 188.885 47.4773C190.612 47.4773 192.05 47.8693 193.197 48.6534C194.357 49.4261 195.26 50.5114 195.908 51.9091H196.18C196.851 50.5568 197.857 49.483 199.197 48.6875C200.538 47.8807 202.146 47.4773 204.021 47.4773C206.362 47.4773 208.277 48.2102 209.766 49.6761C211.254 51.1307 211.999 53.3977 211.999 56.4773V74H207.976V56.4773C207.976 54.5455 207.447 53.1648 206.391 52.3352C205.334 51.5057 204.089 51.0909 202.658 51.0909C200.817 51.0909 199.391 51.6477 198.379 52.7614C197.368 53.8636 196.862 55.2614 196.862 56.9545V74H192.771V56.0682C192.771 54.5795 192.288 53.3807 191.322 52.4716C190.357 51.5511 189.112 51.0909 187.589 51.0909C186.544 51.0909 185.567 51.3693 184.658 51.9261C183.76 52.483 183.033 53.2557 182.476 54.2443C181.93 55.2216 181.658 56.3523 181.658 57.6364V74H177.635Z" fill="white"/>
<rect x="736" y="27" width="212" height="86" rx="15" fill="black" stroke="#3A3A3A" stroke-width="2"/>
<g filter="url(#filter2_d_17_178)">
<path d="M799.167 92.625V87.7083C799.167 85.1004 798.131 82.5992 796.287 80.7551C794.443 78.911 791.941 77.875 789.333 77.875H769.667C767.059 77.875 764.558 78.911 762.714 80.7551C760.87 82.5992 759.833 85.1004 759.833 87.7083V92.625M789.333 58.2083C789.333 63.6391 784.931 68.0417 779.5 68.0417C774.069 68.0417 769.667 63.6391 769.667 58.2083C769.667 52.7775 774.069 48.375 779.5 48.375C784.931 48.375 789.333 52.7775 789.333 58.2083Z" stroke="#F36017" stroke-width="4" stroke-linecap="round" stroke-linejoin="round"/>
</g>
<path d="M847.182 73.2955V57.8182H851.205V84H847.182V79.5682H846.909C846.295 80.8977 845.341 82.0284 844.045 82.9602C842.75 83.8807 841.114 84.3409 839.136 84.3409C837.5 84.3409 836.045 83.983 834.773 83.267C833.5 82.5398 832.5 81.4489 831.773 79.9943C831.045 78.5284 830.682 76.6818 830.682 74.4545V57.8182H834.705V74.1818C834.705 76.0909 835.239 77.6136 836.307 78.75C837.386 79.8864 838.761 80.4545 840.432 80.4545C841.432 80.4545 842.449 80.1989 843.483 79.6875C844.528 79.1761 845.403 78.392 846.108 77.3352C846.824 76.2784 847.182 74.9318 847.182 73.2955ZM877.118 63.6818L873.504 64.7045C873.277 64.1023 872.942 63.517 872.499 62.9489C872.067 62.3693 871.476 61.892 870.726 61.517C869.976 61.142 869.016 60.9545 867.845 60.9545C866.243 60.9545 864.908 61.3239 863.839 62.0625C862.783 62.7898 862.254 63.7159 862.254 64.8409C862.254 65.8409 862.618 66.6307 863.345 67.2102C864.072 67.7898 865.209 68.2727 866.754 68.6591L870.641 69.6136C872.982 70.1818 874.726 71.0511 875.874 72.2216C877.021 73.3807 877.595 74.875 877.595 76.7045C877.595 78.2045 877.163 79.5455 876.3 80.7273C875.447 81.9091 874.254 82.8409 872.72 83.5227C871.186 84.2045 869.402 84.5455 867.368 84.5455C864.697 84.5455 862.487 83.9659 860.737 82.8068C858.987 81.6477 857.879 79.9545 857.413 77.7273L861.232 76.7727C861.595 78.1818 862.283 79.2386 863.294 79.9432C864.317 80.6477 865.652 81 867.3 81C869.175 81 870.663 80.6023 871.766 79.8068C872.879 79 873.436 78.0341 873.436 76.9091C873.436 76 873.118 75.2386 872.482 74.625C871.845 74 870.868 73.5341 869.55 73.2273L865.186 72.2045C862.788 71.6364 861.027 70.7557 859.902 69.5625C858.788 68.358 858.232 66.8523 858.232 65.0455C858.232 63.5682 858.646 62.2614 859.476 61.125C860.317 59.9886 861.459 59.0966 862.902 58.4489C864.357 57.8011 866.004 57.4773 867.845 57.4773C870.436 57.4773 872.47 58.0455 873.947 59.1818C875.436 60.3182 876.493 61.8182 877.118 63.6818ZM894.628 84.5455C892.105 84.5455 889.929 83.9886 888.099 82.875C886.281 81.75 884.878 80.1818 883.889 78.1705C882.912 76.1477 882.423 73.7955 882.423 71.1136C882.423 68.4318 882.912 66.0682 883.889 64.0227C884.878 61.9659 886.253 60.3636 888.014 59.2159C889.787 58.0568 891.855 57.4773 894.219 57.4773C895.582 57.4773 896.929 57.7045 898.259 58.1591C899.588 58.6136 900.798 59.3523 901.889 60.375C902.98 61.3864 903.849 62.7273 904.497 64.3977C905.145 66.0682 905.469 68.125 905.469 70.5682V72.2727H885.287V68.7955H901.378C901.378 67.3182 901.082 66 900.491 64.8409C899.912 63.6818 899.082 62.767 898.003 62.0966C896.935 61.4261 895.673 61.0909 894.219 61.0909C892.616 61.0909 891.23 61.4886 890.06 62.2841C888.901 63.0682 888.009 64.0909 887.384 65.3523C886.759 66.6136 886.446 67.9659 886.446 69.4091V71.7273C886.446 73.7045 886.787 75.3807 887.469 76.7557C888.162 78.1193 889.122 79.1591 890.349 79.875C891.577 80.5795 893.003 80.9318 894.628 80.9318C895.685 80.9318 896.639 80.7841 897.491 80.4886C898.355 80.1818 899.099 79.7273 899.724 79.125C900.349 78.5114 900.832 77.75 901.173 76.8409L905.06 77.9318C904.651 79.25 903.963 80.4091 902.997 81.4091C902.031 82.3977 900.838 83.1705 899.418 83.7273C897.997 84.2727 896.401 84.5455 894.628 84.5455ZM911.588 84V57.8182H915.474V61.7727H915.747C916.224 60.4773 917.088 59.4261 918.338 58.6193C919.588 57.8125 920.997 57.4091 922.565 57.4091C922.861 57.4091 923.23 57.4148 923.673 57.4261C924.116 57.4375 924.452 57.4545 924.679 57.4773V61.5682C924.543 61.5341 924.23 61.483 923.741 61.4148C923.264 61.3352 922.759 61.2955 922.224 61.2955C920.952 61.2955 919.815 61.5625 918.815 62.0966C917.827 62.6193 917.043 63.3466 916.463 64.2784C915.895 65.1989 915.611 66.25 915.611 67.4318V84H911.588Z" fill="white"/>
<rect x="736" y="1" width="269" height="112" rx="15" fill="black" stroke="#3A3A3A" stroke-width="2"/>
<g filter="url(#filter3_d_17_178)">
<path d="M819.167 78.625V73.7083C819.167 71.1004 818.131 68.5992 816.287 66.7551C814.443 64.911 811.941 63.875 809.333 63.875H789.667C787.059 63.875 784.558 64.911 782.714 66.7551C780.87 68.5992 779.833 71.1004 779.833 73.7083V78.625M809.333 44.2083C809.333 49.6391 804.931 54.0417 799.5 54.0417C794.069 54.0417 789.667 49.6391 789.667 44.2083C789.667 38.7775 794.069 34.375 799.5 34.375C804.931 34.375 809.333 38.7775 809.333 44.2083Z" stroke="#F36017" stroke-width="4" stroke-linecap="round" stroke-linejoin="round"/>
</g>
<path d="M894.682 56.5455C894.682 60.2273 894.017 63.4091 892.688 66.0909C891.358 68.7727 889.534 70.8409 887.216 72.2955C884.898 73.75 882.25 74.4773 879.273 74.4773C876.295 74.4773 873.648 73.75 871.33 72.2955C869.011 70.8409 867.188 68.7727 865.858 66.0909C864.528 63.4091 863.864 60.2273 863.864 56.5455C863.864 52.8636 864.528 49.6818 865.858 47C867.188 44.3182 869.011 42.25 871.33 40.7955C873.648 39.3409 876.295 38.6136 879.273 38.6136C882.25 38.6136 884.898 39.3409 887.216 40.7955C889.534 42.25 891.358 44.3182 892.688 47C894.017 49.6818 894.682 52.8636 894.682 56.5455ZM890.591 56.5455C890.591 53.5227 890.085 50.9716 889.074 48.892C888.074 46.8125 886.716 45.2386 885 44.1705C883.295 43.1023 881.386 42.5682 879.273 42.5682C877.159 42.5682 875.244 43.1023 873.528 44.1705C871.824 45.2386 870.466 46.8125 869.455 48.892C868.455 50.9716 867.955 53.5227 867.955 56.5455C867.955 59.5682 868.455 62.1193 869.455 64.1989C870.466 66.2784 871.824 67.8523 873.528 68.9205C875.244 69.9886 877.159 70.5227 879.273 70.5227C881.386 70.5227 883.295 69.9886 885 68.9205C886.716 67.8523 888.074 66.2784 889.074 64.1989C890.085 62.1193 890.591 59.5682 890.591 56.5455ZM905.267 39.0909V74H901.244V39.0909H905.267ZM912.635 74V47.8182H916.521V51.9091H916.862C917.408 50.5114 918.288 49.4261 919.504 48.6534C920.72 47.8693 922.18 47.4773 923.885 47.4773C925.612 47.4773 927.05 47.8693 928.197 48.6534C929.357 49.4261 930.26 50.5114 930.908 51.9091H931.18C931.851 50.5568 932.857 49.483 934.197 48.6875C935.538 47.8807 937.146 47.4773 939.021 47.4773C941.362 47.4773 943.277 48.2102 944.766 49.6761C946.254 51.1307 946.999 53.3977 946.999 56.4773V74H942.976V56.4773C942.976 54.5455 942.447 53.1648 941.391 52.3352C940.334 51.5057 939.089 51.0909 937.658 51.0909C935.817 51.0909 934.391 51.6477 933.379 52.7614C932.368 53.8636 931.862 55.2614 931.862 56.9545V74H927.771V56.0682C927.771 54.5795 927.288 53.3807 926.322 52.4716C925.357 51.5511 924.112 51.0909 922.589 51.0909C921.544 51.0909 920.567 51.3693 919.658 51.9261C918.76 52.483 918.033 53.2557 917.476 54.2443C916.93 55.2216 916.658 56.3523 916.658 57.6364V74H912.635Z" fill="white"/>
<path d="M873 119C873 117.619 871.881 116.5 870.5 116.5C869.119 116.5 868 117.619 868 119H873ZM501.232 456.768C502.209 457.744 503.791 457.744 504.768 456.768L520.678 440.858C521.654 439.882 521.654 438.299 520.678 437.322C519.701 436.346 518.118 436.346 517.142 437.322L503 451.464L488.858 437.322C487.882 436.346 486.299 436.346 485.322 437.322C484.346 438.299 484.346 439.882 485.322 440.858L501.232 456.768ZM870.5 119H868V263H870.5H873V119H870.5ZM846.5 287V284.5H527V287V289.5H846.5V287ZM503 311H500.5V455H503H505.5V311H503ZM527 287V284.5C512.364 284.5 500.5 296.364 500.5 311H503H505.5C505.5 299.126 515.126 289.5 527 289.5V287ZM870.5 263H868C868 274.874 858.374 284.5 846.5 284.5V287V289.5C861.136 289.5 873 277.636 873 263H870.5Z" fill="#7C7C7C"/>
<rect x="369" y="27" width="212" height="86" rx="15" fill="black" stroke="#3A3A3A" stroke-width="2"/>
<g filter="url(#filter4_d_17_178)">
<path d="M432.167 92.625V87.7083C432.167 85.1004 431.131 82.5992 429.287 80.7551C427.443 78.911 424.941 77.875 422.333 77.875H402.667C400.059 77.875 397.558 78.911 395.714 80.7551C393.87 82.5992 392.833 85.1004 392.833 87.7083V92.625M422.333 58.2083C422.333 63.6391 417.931 68.0417 412.5 68.0417C407.069 68.0417 402.667 63.6391 402.667 58.2083C402.667 52.7775 407.069 48.375 412.5 48.375C417.931 48.375 422.333 52.7775 422.333 58.2083Z" stroke="#F36017" stroke-width="4" stroke-linecap="round" stroke-linejoin="round"/>
</g>
<path d="M480.182 73.2955V57.8182H484.205V84H480.182V79.5682H479.909C479.295 80.8977 478.341 82.0284 477.045 82.9602C475.75 83.8807 474.114 84.3409 472.136 84.3409C470.5 84.3409 469.045 83.983 467.773 83.267C466.5 82.5398 465.5 81.4489 464.773 79.9943C464.045 78.5284 463.682 76.6818 463.682 74.4545V57.8182H467.705V74.1818C467.705 76.0909 468.239 77.6136 469.307 78.75C470.386 79.8864 471.761 80.4545 473.432 80.4545C474.432 80.4545 475.449 80.1989 476.483 79.6875C477.528 79.1761 478.403 78.392 479.108 77.3352C479.824 76.2784 480.182 74.9318 480.182 73.2955ZM510.118 63.6818L506.504 64.7045C506.277 64.1023 505.942 63.517 505.499 62.9489C505.067 62.3693 504.476 61.892 503.726 61.517C502.976 61.142 502.016 60.9545 500.845 60.9545C499.243 60.9545 497.908 61.3239 496.839 62.0625C495.783 62.7898 495.254 63.7159 495.254 64.8409C495.254 65.8409 495.618 66.6307 496.345 67.2102C497.072 67.7898 498.209 68.2727 499.754 68.6591L503.641 69.6136C505.982 70.1818 507.726 71.0511 508.874 72.2216C510.021 73.3807 510.595 74.875 510.595 76.7045C510.595 78.2045 510.163 79.5455 509.3 80.7273C508.447 81.9091 507.254 82.8409 505.72 83.5227C504.186 84.2045 502.402 84.5455 500.368 84.5455C497.697 84.5455 495.487 83.9659 493.737 82.8068C491.987 81.6477 490.879 79.9545 490.413 77.7273L494.232 76.7727C494.595 78.1818 495.283 79.2386 496.294 79.9432C497.317 80.6477 498.652 81 500.3 81C502.175 81 503.663 80.6023 504.766 79.8068C505.879 79 506.436 78.0341 506.436 76.9091C506.436 76 506.118 75.2386 505.482 74.625C504.845 74 503.868 73.5341 502.55 73.2273L498.186 72.2045C495.788 71.6364 494.027 70.7557 492.902 69.5625C491.788 68.358 491.232 66.8523 491.232 65.0455C491.232 63.5682 491.646 62.2614 492.476 61.125C493.317 59.9886 494.459 59.0966 495.902 58.4489C497.357 57.8011 499.004 57.4773 500.845 57.4773C503.436 57.4773 505.47 58.0455 506.947 59.1818C508.436 60.3182 509.493 61.8182 510.118 63.6818ZM527.628 84.5455C525.105 84.5455 522.929 83.9886 521.099 82.875C519.281 81.75 517.878 80.1818 516.889 78.1705C515.912 76.1477 515.423 73.7955 515.423 71.1136C515.423 68.4318 515.912 66.0682 516.889 64.0227C517.878 61.9659 519.253 60.3636 521.014 59.2159C522.787 58.0568 524.855 57.4773 527.219 57.4773C528.582 57.4773 529.929 57.7045 531.259 58.1591C532.588 58.6136 533.798 59.3523 534.889 60.375C535.98 61.3864 536.849 62.7273 537.497 64.3977C538.145 66.0682 538.469 68.125 538.469 70.5682V72.2727H518.287V68.7955H534.378C534.378 67.3182 534.082 66 533.491 64.8409C532.912 63.6818 532.082 62.767 531.003 62.0966C529.935 61.4261 528.673 61.0909 527.219 61.0909C525.616 61.0909 524.23 61.4886 523.06 62.2841C521.901 63.0682 521.009 64.0909 520.384 65.3523C519.759 66.6136 519.446 67.9659 519.446 69.4091V71.7273C519.446 73.7045 519.787 75.3807 520.469 76.7557C521.162 78.1193 522.122 79.1591 523.349 79.875C524.577 80.5795 526.003 80.9318 527.628 80.9318C528.685 80.9318 529.639 80.7841 530.491 80.4886C531.355 80.1818 532.099 79.7273 532.724 79.125C533.349 78.5114 533.832 77.75 534.173 76.8409L538.06 77.9318C537.651 79.25 536.963 80.4091 535.997 81.4091C535.031 82.3977 533.838 83.1705 532.418 83.7273C530.997 84.2727 529.401 84.5455 527.628 84.5455ZM544.588 84V57.8182H548.474V61.7727H548.747C549.224 60.4773 550.088 59.4261 551.338 58.6193C552.588 57.8125 553.997 57.4091 555.565 57.4091C555.861 57.4091 556.23 57.4148 556.673 57.4261C557.116 57.4375 557.452 57.4545 557.679 57.4773V61.5682C557.543 61.5341 557.23 61.483 556.741 61.4148C556.264 61.3352 555.759 61.2955 555.224 61.2955C553.952 61.2955 552.815 61.5625 551.815 62.0966C550.827 62.6193 550.043 63.3466 549.463 64.2784C548.895 65.1989 548.611 66.25 548.611 67.4318V84H544.588Z" fill="white"/>
<rect x="369" y="1" width="269" height="112" rx="15" fill="black" stroke="#3A3A3A" stroke-width="2"/>
<g filter="url(#filter5_d_17_178)">
<path d="M452.167 78.625V73.7083C452.167 71.1004 451.131 68.5992 449.287 66.7551C447.443 64.911 444.941 63.875 442.333 63.875H422.667C420.059 63.875 417.558 64.911 415.714 66.7551C413.87 68.5992 412.833 71.1004 412.833 73.7083V78.625M442.333 44.2083C442.333 49.6391 437.931 54.0417 432.5 54.0417C427.069 54.0417 422.667 49.6391 422.667 44.2083C422.667 38.7775 427.069 34.375 432.5 34.375C437.931 34.375 442.333 38.7775 442.333 44.2083Z" stroke="#F36017" stroke-width="4" stroke-linecap="round" stroke-linejoin="round"/>
</g>
<path d="M527.682 56.5455C527.682 60.2273 527.017 63.4091 525.688 66.0909C524.358 68.7727 522.534 70.8409 520.216 72.2955C517.898 73.75 515.25 74.4773 512.273 74.4773C509.295 74.4773 506.648 73.75 504.33 72.2955C502.011 70.8409 500.188 68.7727 498.858 66.0909C497.528 63.4091 496.864 60.2273 496.864 56.5455C496.864 52.8636 497.528 49.6818 498.858 47C500.188 44.3182 502.011 42.25 504.33 40.7955C506.648 39.3409 509.295 38.6136 512.273 38.6136C515.25 38.6136 517.898 39.3409 520.216 40.7955C522.534 42.25 524.358 44.3182 525.688 47C527.017 49.6818 527.682 52.8636 527.682 56.5455ZM523.591 56.5455C523.591 53.5227 523.085 50.9716 522.074 48.892C521.074 46.8125 519.716 45.2386 518 44.1705C516.295 43.1023 514.386 42.5682 512.273 42.5682C510.159 42.5682 508.244 43.1023 506.528 44.1705C504.824 45.2386 503.466 46.8125 502.455 48.892C501.455 50.9716 500.955 53.5227 500.955 56.5455C500.955 59.5682 501.455 62.1193 502.455 64.1989C503.466 66.2784 504.824 67.8523 506.528 68.9205C508.244 69.9886 510.159 70.5227 512.273 70.5227C514.386 70.5227 516.295 69.9886 518 68.9205C519.716 67.8523 521.074 66.2784 522.074 64.1989C523.085 62.1193 523.591 59.5682 523.591 56.5455ZM538.267 39.0909V74H534.244V39.0909H538.267ZM545.635 74V47.8182H549.521V51.9091H549.862C550.408 50.5114 551.288 49.4261 552.504 48.6534C553.72 47.8693 555.18 47.4773 556.885 47.4773C558.612 47.4773 560.05 47.8693 561.197 48.6534C562.357 49.4261 563.26 50.5114 563.908 51.9091H564.18C564.851 50.5568 565.857 49.483 567.197 48.6875C568.538 47.8807 570.146 47.4773 572.021 47.4773C574.362 47.4773 576.277 48.2102 577.766 49.6761C579.254 51.1307 579.999 53.3977 579.999 56.4773V74H575.976V56.4773C575.976 54.5455 575.447 53.1648 574.391 52.3352C573.334 51.5057 572.089 51.0909 570.658 51.0909C568.817 51.0909 567.391 51.6477 566.379 52.7614C565.368 53.8636 564.862 55.2614 564.862 56.9545V74H560.771V56.0682C560.771 54.5795 560.288 53.3807 559.322 52.4716C558.357 51.5511 557.112 51.0909 555.589 51.0909C554.544 51.0909 553.567 51.3693 552.658 51.9261C551.76 52.483 551.033 53.2557 550.476 54.2443C549.93 55.2216 549.658 56.3523 549.658 57.6364V74H545.635Z" fill="white"/>
<path d="M629.227 261V226.091H641.023C643.75 226.091 645.989 226.557 647.739 227.489C649.489 228.409 650.784 229.676 651.625 231.29C652.466 232.903 652.886 234.739 652.886 236.795C652.886 238.852 652.466 240.676 651.625 242.267C650.784 243.858 649.494 245.108 647.756 246.017C646.017 246.915 643.795 247.364 641.091 247.364H631.545V243.545H640.955C642.818 243.545 644.318 243.273 645.455 242.727C646.602 242.182 647.432 241.409 647.943 240.409C648.466 239.398 648.727 238.193 648.727 236.795C648.727 235.398 648.466 234.176 647.943 233.131C647.42 232.085 646.585 231.278 645.438 230.71C644.29 230.131 642.773 229.841 640.886 229.841H633.455V261H629.227ZM645.659 245.318L654.25 261H649.341L640.886 245.318H645.659ZM670.081 261.545C667.558 261.545 665.382 260.989 663.553 259.875C661.734 258.75 660.331 257.182 659.342 255.17C658.365 253.148 657.876 250.795 657.876 248.114C657.876 245.432 658.365 243.068 659.342 241.023C660.331 238.966 661.706 237.364 663.467 236.216C665.24 235.057 667.308 234.477 669.672 234.477C671.036 234.477 672.382 234.705 673.712 235.159C675.041 235.614 676.251 236.352 677.342 237.375C678.433 238.386 679.303 239.727 679.95 241.398C680.598 243.068 680.922 245.125 680.922 247.568V249.273H660.74V245.795H676.831C676.831 244.318 676.536 243 675.945 241.841C675.365 240.682 674.536 239.767 673.456 239.097C672.388 238.426 671.126 238.091 669.672 238.091C668.07 238.091 666.683 238.489 665.513 239.284C664.354 240.068 663.462 241.091 662.837 242.352C662.212 243.614 661.899 244.966 661.899 246.409V248.727C661.899 250.705 662.24 252.381 662.922 253.756C663.615 255.119 664.575 256.159 665.803 256.875C667.03 257.58 668.456 257.932 670.081 257.932C671.138 257.932 672.092 257.784 672.945 257.489C673.808 257.182 674.553 256.727 675.178 256.125C675.803 255.511 676.286 254.75 676.626 253.841L680.513 254.932C680.104 256.25 679.416 257.409 678.45 258.409C677.484 259.398 676.291 260.17 674.871 260.727C673.45 261.273 671.854 261.545 670.081 261.545ZM691.064 226.091V261H687.041V226.091H691.064ZM706.136 261.614C704.477 261.614 702.972 261.301 701.619 260.676C700.267 260.04 699.193 259.125 698.398 257.932C697.602 256.727 697.205 255.273 697.205 253.568C697.205 252.068 697.5 250.852 698.091 249.92C698.682 248.977 699.472 248.239 700.46 247.705C701.449 247.17 702.54 246.773 703.733 246.511C704.938 246.239 706.148 246.023 707.364 245.864C708.955 245.659 710.244 245.506 711.233 245.403C712.233 245.29 712.96 245.102 713.415 244.841C713.881 244.58 714.114 244.125 714.114 243.477V243.341C714.114 241.659 713.653 240.352 712.733 239.42C711.824 238.489 710.443 238.023 708.591 238.023C706.67 238.023 705.165 238.443 704.074 239.284C702.983 240.125 702.216 241.023 701.773 241.977L697.955 240.614C698.636 239.023 699.545 237.784 700.682 236.898C701.83 236 703.08 235.375 704.432 235.023C705.795 234.659 707.136 234.477 708.455 234.477C709.295 234.477 710.261 234.58 711.352 234.784C712.455 234.977 713.517 235.381 714.54 235.994C715.574 236.608 716.432 237.534 717.114 238.773C717.795 240.011 718.136 241.67 718.136 243.75V261H714.114V257.455H713.909C713.636 258.023 713.182 258.631 712.545 259.278C711.909 259.926 711.063 260.477 710.006 260.932C708.949 261.386 707.659 261.614 706.136 261.614ZM706.75 258C708.341 258 709.682 257.688 710.773 257.062C711.875 256.438 712.705 255.631 713.261 254.642C713.83 253.653 714.114 252.614 714.114 251.523V247.841C713.943 248.045 713.568 248.233 712.989 248.403C712.42 248.562 711.761 248.705 711.011 248.83C710.273 248.943 709.551 249.045 708.847 249.136C708.153 249.216 707.591 249.284 707.159 249.341C706.114 249.477 705.136 249.699 704.227 250.006C703.33 250.301 702.602 250.75 702.045 251.352C701.5 251.943 701.227 252.75 701.227 253.773C701.227 255.17 701.744 256.227 702.778 256.943C703.824 257.648 705.148 258 706.75 258ZM727.132 270.818C726.45 270.818 725.842 270.761 725.308 270.648C724.774 270.545 724.405 270.443 724.2 270.341L725.223 266.795C726.2 267.045 727.064 267.136 727.814 267.068C728.564 267 729.229 266.665 729.808 266.062C730.399 265.472 730.939 264.511 731.428 263.182L732.178 261.136L722.496 234.818H726.859L734.087 255.682H734.359L741.587 234.818H745.95L734.837 264.818C734.337 266.17 733.717 267.29 732.979 268.176C732.24 269.074 731.382 269.739 730.405 270.17C729.439 270.602 728.348 270.818 727.132 270.818Z" fill="white"/>
<path d="M158.227 506V471.091H162.455V486.636H181.068V471.091H185.295V506H181.068V490.386H162.455V506H158.227ZM203.849 506.545C201.486 506.545 199.412 505.983 197.628 504.858C195.855 503.733 194.469 502.159 193.469 500.136C192.48 498.114 191.986 495.75 191.986 493.045C191.986 490.318 192.48 487.937 193.469 485.903C194.469 483.869 195.855 482.29 197.628 481.165C199.412 480.04 201.486 479.477 203.849 479.477C206.213 479.477 208.281 480.04 210.054 481.165C211.838 482.29 213.224 483.869 214.213 485.903C215.213 487.937 215.713 490.318 215.713 493.045C215.713 495.75 215.213 498.114 214.213 500.136C213.224 502.159 211.838 503.733 210.054 504.858C208.281 505.983 206.213 506.545 203.849 506.545ZM203.849 502.932C205.645 502.932 207.122 502.472 208.281 501.551C209.44 500.631 210.298 499.42 210.855 497.92C211.412 496.42 211.69 494.795 211.69 493.045C211.69 491.295 211.412 489.665 210.855 488.153C210.298 486.642 209.44 485.42 208.281 484.489C207.122 483.557 205.645 483.091 203.849 483.091C202.054 483.091 200.577 483.557 199.418 484.489C198.259 485.42 197.401 486.642 196.844 488.153C196.287 489.665 196.009 491.295 196.009 493.045C196.009 494.795 196.287 496.42 196.844 497.92C197.401 499.42 198.259 500.631 199.418 501.551C200.577 502.472 202.054 502.932 203.849 502.932ZM225.876 471.091V506H221.854V471.091H225.876ZM244.222 506.545C241.699 506.545 239.523 505.989 237.693 504.875C235.875 503.75 234.472 502.182 233.483 500.17C232.506 498.148 232.017 495.795 232.017 493.114C232.017 490.432 232.506 488.068 233.483 486.023C234.472 483.966 235.847 482.364 237.608 481.216C239.381 480.057 241.449 479.477 243.812 479.477C245.176 479.477 246.523 479.705 247.852 480.159C249.182 480.614 250.392 481.352 251.483 482.375C252.574 483.386 253.443 484.727 254.091 486.398C254.739 488.068 255.062 490.125 255.062 492.568V494.273H234.881V490.795H250.972C250.972 489.318 250.676 488 250.085 486.841C249.506 485.682 248.676 484.767 247.597 484.097C246.528 483.426 245.267 483.091 243.812 483.091C242.21 483.091 240.824 483.489 239.653 484.284C238.494 485.068 237.602 486.091 236.977 487.352C236.352 488.614 236.04 489.966 236.04 491.409V493.727C236.04 495.705 236.381 497.381 237.062 498.756C237.756 500.119 238.716 501.159 239.943 501.875C241.17 502.58 242.597 502.932 244.222 502.932C245.278 502.932 246.233 502.784 247.085 502.489C247.949 502.182 248.693 501.727 249.318 501.125C249.943 500.511 250.426 499.75 250.767 498.841L254.653 499.932C254.244 501.25 253.557 502.409 252.591 503.409C251.625 504.398 250.432 505.17 249.011 505.727C247.591 506.273 245.994 506.545 244.222 506.545ZM158.227 564V529.091H170.023C172.761 529.091 175 529.585 176.739 530.574C178.489 531.551 179.784 532.875 180.625 534.545C181.466 536.216 181.886 538.08 181.886 540.136C181.886 542.193 181.466 544.062 180.625 545.744C179.795 547.426 178.511 548.767 176.773 549.767C175.034 550.756 172.807 551.25 170.091 551.25H161.636V547.5H169.955C171.83 547.5 173.335 547.176 174.472 546.528C175.608 545.881 176.432 545.006 176.943 543.903C177.466 542.79 177.727 541.534 177.727 540.136C177.727 538.739 177.466 537.489 176.943 536.386C176.432 535.284 175.602 534.42 174.455 533.795C173.307 533.159 171.784 532.841 169.886 532.841H162.455V564H158.227ZM204.651 553.295V537.818H208.673V564H204.651V559.568H204.378C203.764 560.898 202.81 562.028 201.514 562.96C200.219 563.881 198.582 564.341 196.605 564.341C194.969 564.341 193.514 563.983 192.241 563.267C190.969 562.54 189.969 561.449 189.241 559.994C188.514 558.528 188.151 556.682 188.151 554.455V537.818H192.173V554.182C192.173 556.091 192.707 557.614 193.776 558.75C194.855 559.886 196.23 560.455 197.901 560.455C198.901 560.455 199.918 560.199 200.952 559.688C201.997 559.176 202.872 558.392 203.577 557.335C204.293 556.278 204.651 554.932 204.651 553.295ZM220.064 548.25V564H216.041V537.818H219.928V541.909H220.268C220.882 540.58 221.814 539.511 223.064 538.705C224.314 537.886 225.928 537.477 227.905 537.477C229.678 537.477 231.229 537.841 232.558 538.568C233.888 539.284 234.922 540.375 235.661 541.841C236.399 543.295 236.768 545.136 236.768 547.364V564H232.746V547.636C232.746 545.58 232.212 543.977 231.143 542.83C230.075 541.67 228.609 541.091 226.746 541.091C225.462 541.091 224.314 541.369 223.303 541.926C222.303 542.483 221.513 543.295 220.933 544.364C220.354 545.432 220.064 546.727 220.064 548.25ZM254.756 564.545C252.301 564.545 250.188 563.966 248.415 562.807C246.642 561.648 245.278 560.051 244.324 558.017C243.369 555.983 242.892 553.659 242.892 551.045C242.892 548.386 243.381 546.04 244.358 544.006C245.347 541.96 246.722 540.364 248.483 539.216C250.256 538.057 252.324 537.477 254.688 537.477C256.528 537.477 258.188 537.818 259.665 538.5C261.142 539.182 262.352 540.136 263.295 541.364C264.239 542.591 264.824 544.023 265.051 545.659H261.028C260.722 544.466 260.04 543.409 258.983 542.489C257.938 541.557 256.528 541.091 254.756 541.091C253.188 541.091 251.813 541.5 250.631 542.318C249.46 543.125 248.545 544.267 247.886 545.744C247.239 547.21 246.915 548.932 246.915 550.909C246.915 552.932 247.233 554.693 247.869 556.193C248.517 557.693 249.426 558.858 250.597 559.688C251.778 560.517 253.165 560.932 254.756 560.932C255.801 560.932 256.75 560.75 257.602 560.386C258.455 560.023 259.176 559.5 259.767 558.818C260.358 558.136 260.778 557.318 261.028 556.364H265.051C264.824 557.909 264.261 559.301 263.364 560.54C262.477 561.767 261.301 562.744 259.835 563.472C258.381 564.188 256.688 564.545 254.756 564.545ZM274.955 548.25V564H270.932V529.091H274.955V541.909H275.295C275.909 540.557 276.83 539.483 278.057 538.688C279.295 537.881 280.943 537.477 283 537.477C284.784 537.477 286.347 537.835 287.688 538.551C289.028 539.256 290.068 540.341 290.807 541.807C291.557 543.261 291.932 545.114 291.932 547.364V564H287.909V547.636C287.909 545.557 287.369 543.949 286.29 542.812C285.222 541.665 283.739 541.091 281.841 541.091C280.523 541.091 279.341 541.369 278.295 541.926C277.261 542.483 276.443 543.295 275.841 544.364C275.25 545.432 274.955 546.727 274.955 548.25Z" fill="white"/>
<path d="M467.091 638C466.716 636.852 466.222 635.824 465.608 634.915C465.006 633.994 464.284 633.21 463.443 632.562C462.614 631.915 461.67 631.42 460.614 631.08C459.557 630.739 458.398 630.568 457.136 630.568C455.068 630.568 453.188 631.102 451.494 632.17C449.801 633.239 448.455 634.812 447.455 636.892C446.455 638.972 445.955 641.523 445.955 644.545C445.955 647.568 446.46 650.119 447.472 652.199C448.483 654.278 449.852 655.852 451.58 656.92C453.307 657.989 455.25 658.523 457.409 658.523C459.409 658.523 461.17 658.097 462.693 657.244C464.227 656.381 465.42 655.165 466.273 653.597C467.136 652.017 467.568 650.159 467.568 648.023L468.864 648.295H458.364V644.545H471.659V648.295C471.659 651.17 471.045 653.67 469.818 655.795C468.602 657.92 466.92 659.568 464.773 660.739C462.636 661.898 460.182 662.477 457.409 662.477C454.318 662.477 451.602 661.75 449.261 660.295C446.932 658.841 445.114 656.773 443.807 654.091C442.511 651.409 441.864 648.227 441.864 644.545C441.864 641.784 442.233 639.301 442.972 637.097C443.722 634.881 444.778 632.994 446.142 631.438C447.506 629.881 449.119 628.688 450.983 627.858C452.847 627.028 454.898 626.614 457.136 626.614C458.977 626.614 460.693 626.892 462.284 627.449C463.886 627.994 465.312 628.773 466.562 629.784C467.824 630.784 468.875 631.983 469.716 633.381C470.557 634.767 471.136 636.307 471.455 638H467.091ZM489.331 662.545C486.808 662.545 484.632 661.989 482.803 660.875C480.984 659.75 479.581 658.182 478.592 656.17C477.615 654.148 477.126 651.795 477.126 649.114C477.126 646.432 477.615 644.068 478.592 642.023C479.581 639.966 480.956 638.364 482.717 637.216C484.49 636.057 486.558 635.477 488.922 635.477C490.286 635.477 491.632 635.705 492.962 636.159C494.291 636.614 495.501 637.352 496.592 638.375C497.683 639.386 498.553 640.727 499.2 642.398C499.848 644.068 500.172 646.125 500.172 648.568V650.273H479.99V646.795H496.081C496.081 645.318 495.786 644 495.195 642.841C494.615 641.682 493.786 640.767 492.706 640.097C491.638 639.426 490.376 639.091 488.922 639.091C487.32 639.091 485.933 639.489 484.763 640.284C483.604 641.068 482.712 642.091 482.087 643.352C481.462 644.614 481.149 645.966 481.149 647.409V649.727C481.149 651.705 481.49 653.381 482.172 654.756C482.865 656.119 483.825 657.159 485.053 657.875C486.28 658.58 487.706 658.932 489.331 658.932C490.388 658.932 491.342 658.784 492.195 658.489C493.058 658.182 493.803 657.727 494.428 657.125C495.053 656.511 495.536 655.75 495.876 654.841L499.763 655.932C499.354 657.25 498.666 658.409 497.7 659.409C496.734 660.398 495.541 661.17 494.121 661.727C492.7 662.273 491.104 662.545 489.331 662.545ZM506.291 662V635.818H510.178V639.773H510.45C510.928 638.477 511.791 637.426 513.041 636.619C514.291 635.812 515.7 635.409 517.268 635.409C517.564 635.409 517.933 635.415 518.376 635.426C518.82 635.437 519.155 635.455 519.382 635.477V639.568C519.246 639.534 518.933 639.483 518.445 639.415C517.967 639.335 517.462 639.295 516.928 639.295C515.655 639.295 514.518 639.562 513.518 640.097C512.53 640.619 511.746 641.347 511.166 642.278C510.598 643.199 510.314 644.25 510.314 645.432V662H506.291ZM524.696 662V627.091H528.719V639.977H529.06C529.355 639.523 529.764 638.943 530.287 638.239C530.821 637.523 531.582 636.886 532.571 636.33C533.571 635.761 534.923 635.477 536.628 635.477C538.832 635.477 540.776 636.028 542.457 637.131C544.139 638.233 545.452 639.795 546.395 641.818C547.338 643.841 547.81 646.227 547.81 648.977C547.81 651.75 547.338 654.153 546.395 656.188C545.452 658.21 544.145 659.778 542.474 660.892C540.804 661.994 538.878 662.545 536.696 662.545C535.014 662.545 533.668 662.267 532.656 661.71C531.645 661.142 530.866 660.5 530.321 659.784C529.776 659.057 529.355 658.455 529.06 657.977H528.582V662H524.696ZM528.651 648.909C528.651 650.886 528.94 652.631 529.52 654.142C530.099 655.642 530.946 656.818 532.06 657.67C533.173 658.511 534.537 658.932 536.151 658.932C537.832 658.932 539.236 658.489 540.361 657.602C541.497 656.705 542.349 655.5 542.918 653.989C543.497 652.466 543.787 650.773 543.787 648.909C543.787 647.068 543.503 645.409 542.935 643.932C542.378 642.443 541.531 641.267 540.395 640.403C539.27 639.528 537.855 639.091 536.151 639.091C534.514 639.091 533.139 639.506 532.026 640.335C530.912 641.153 530.071 642.301 529.503 643.778C528.935 645.244 528.651 646.955 528.651 648.909ZM553.963 662V635.818H557.986V662H553.963ZM556.009 631.455C555.224 631.455 554.548 631.188 553.98 630.653C553.423 630.119 553.145 629.477 553.145 628.727C553.145 627.977 553.423 627.335 553.98 626.801C554.548 626.267 555.224 626 556.009 626C556.793 626 557.463 626.267 558.02 626.801C558.588 627.335 558.872 627.977 558.872 628.727C558.872 629.477 558.588 630.119 558.02 630.653C557.463 631.188 556.793 631.455 556.009 631.455ZM569.376 627.091V662H565.354V627.091H569.376Z" fill="white"/>
<path d="M505.5 119C505.5 117.619 504.381 116.5 503 116.5C501.619 116.5 500.5 117.619 500.5 119H505.5ZM501.232 456.768C502.209 457.744 503.791 457.744 504.768 456.768L520.678 440.858C521.654 439.882 521.654 438.299 520.678 437.322C519.701 436.346 518.118 436.346 517.142 437.322L503 451.464L488.858 437.322C487.882 436.346 486.299 436.346 485.322 437.322C484.346 438.299 484.346 439.882 485.322 440.858L501.232 456.768ZM503 119H500.5V455H503H505.5V119H503Z" fill="#7C7C7C"/>
<path d="M220.167 1099.92H180.833C178.118 1099.92 175.917 1102.12 175.917 1104.83V1114.67C175.917 1117.38 178.118 1119.58 180.833 1119.58H220.167C222.882 1119.58 225.083 1117.38 225.083 1114.67V1104.83C225.083 1102.12 222.882 1099.92 220.167 1099.92Z" stroke="#F36017" stroke-width="4" stroke-linecap="round" stroke-linejoin="round"/>
<path d="M220.167 1129.42H180.833C178.118 1129.42 175.917 1131.62 175.917 1134.33V1144.17C175.917 1146.88 178.118 1149.08 180.833 1149.08H220.167C222.882 1149.08 225.083 1146.88 225.083 1144.17V1134.33C225.083 1131.62 222.882 1129.42 220.167 1129.42Z" stroke="#F36017" stroke-width="4" stroke-linecap="round" stroke-linejoin="round"/>
<path d="M185.75 1109.75H185.774" stroke="#F36017" stroke-width="4" stroke-linecap="round" stroke-linejoin="round"/>
<path d="M185.75 1139.25H185.774" stroke="#F36017" stroke-width="4" stroke-linecap="round" stroke-linejoin="round"/>
<path d="M138 119C138 117.619 136.881 116.5 135.5 116.5C134.119 116.5 133 117.619 133 119H138ZM272.232 1064.77C273.209 1065.74 274.791 1065.74 275.768 1064.77L291.678 1048.86C292.654 1047.88 292.654 1046.3 291.678 1045.32C290.701 1044.35 289.118 1044.35 288.142 1045.32L274 1059.46L259.858 1045.32C258.882 1044.35 257.299 1044.35 256.322 1045.32C255.346 1046.3 255.346 1047.88 256.322 1048.86L272.232 1064.77ZM135.5 119H133V567H135.5H138V119H135.5ZM159.5 591V593.5H250V591V588.5H159.5V591ZM274 615H271.5V1063H274H276.5V615H274ZM250 591V593.5C261.874 593.5 271.5 603.126 271.5 615H274H276.5C276.5 600.364 264.636 588.5 250 588.5V591ZM135.5 567H133C133 581.636 144.864 593.5 159.5 593.5V591V588.5C147.626 588.5 138 578.874 138 567H135.5Z" fill="#7C7C7C"/>
<path d="M505.5 727C505.5 725.619 504.381 724.5 503 724.5C501.619 724.5 500.5 725.619 500.5 727H505.5ZM272.232 1064.77C273.209 1065.74 274.791 1065.74 275.768 1064.77L291.678 1048.86C292.654 1047.88 292.654 1046.3 291.678 1045.32C290.701 1044.35 289.118 1044.35 288.142 1045.32L274 1059.46L259.858 1045.32C258.882 1044.35 257.299 1044.35 256.322 1045.32C255.346 1046.3 255.346 1047.88 256.322 1048.86L272.232 1064.77ZM503 727H500.5V871H503H505.5V727H503ZM479 895V892.5H298V895V897.5H479V895ZM274 919H271.5V1063H274H276.5V919H274ZM298 895V892.5C283.364 892.5 271.5 904.364 271.5 919H274H276.5C276.5 907.126 286.126 897.5 298 897.5V895ZM503 871H500.5C500.5 882.874 490.874 892.5 479 892.5V895V897.5C493.636 897.5 505.5 885.636 505.5 871H503Z" fill="#7C7C7C"/>
<rect x="621" y="1069" width="278" height="110" rx="15" fill="black" stroke="#3A3A3A" stroke-width="2"/>
<path d="M779.909 1106.09V1141H775.818L756.795 1113.59H756.455V1141H752.227V1106.09H756.318L775.409 1133.57H775.75V1106.09H779.909ZM798.8 1141.55C796.277 1141.55 794.101 1140.99 792.271 1139.88C790.453 1138.75 789.05 1137.18 788.061 1135.17C787.084 1133.15 786.595 1130.8 786.595 1128.11C786.595 1125.43 787.084 1123.07 788.061 1121.02C789.05 1118.97 790.425 1117.36 792.186 1116.22C793.959 1115.06 796.027 1114.48 798.391 1114.48C799.754 1114.48 801.101 1114.7 802.43 1115.16C803.76 1115.61 804.97 1116.35 806.061 1117.38C807.152 1118.39 808.021 1119.73 808.669 1121.4C809.317 1123.07 809.641 1125.12 809.641 1127.57V1129.27H789.459V1125.8H805.55C805.55 1124.32 805.254 1123 804.663 1121.84C804.084 1120.68 803.254 1119.77 802.175 1119.1C801.107 1118.43 799.845 1118.09 798.391 1118.09C796.788 1118.09 795.402 1118.49 794.232 1119.28C793.072 1120.07 792.18 1121.09 791.555 1122.35C790.93 1123.61 790.618 1124.97 790.618 1126.41V1128.73C790.618 1130.7 790.959 1132.38 791.641 1133.76C792.334 1135.12 793.294 1136.16 794.521 1136.88C795.749 1137.58 797.175 1137.93 798.8 1137.93C799.857 1137.93 800.811 1137.78 801.663 1137.49C802.527 1137.18 803.271 1136.73 803.896 1136.12C804.521 1135.51 805.004 1134.75 805.345 1133.84L809.232 1134.93C808.822 1136.25 808.135 1137.41 807.169 1138.41C806.203 1139.4 805.01 1140.17 803.589 1140.73C802.169 1141.27 800.572 1141.55 798.8 1141.55ZM821.692 1141L813.714 1114.82H817.942L823.601 1134.86H823.874L829.464 1114.82H833.76L839.283 1134.8H839.555L845.214 1114.82H849.442L841.464 1141H837.51L831.783 1120.89H831.374L825.646 1141H821.692ZM866.146 1114.82V1118.23H852.578V1114.82H866.146ZM856.533 1108.55H860.555V1133.5C860.555 1134.64 860.72 1135.49 861.05 1136.06C861.391 1136.61 861.822 1136.99 862.345 1137.18C862.879 1137.36 863.442 1137.45 864.033 1137.45C864.476 1137.45 864.839 1137.43 865.124 1137.39C865.408 1137.33 865.635 1137.28 865.805 1137.25L866.624 1140.86C866.351 1140.97 865.97 1141.07 865.482 1141.17C864.993 1141.28 864.374 1141.34 863.624 1141.34C862.487 1141.34 861.374 1141.1 860.283 1140.61C859.203 1140.12 858.305 1139.38 857.589 1138.38C856.885 1137.38 856.533 1136.11 856.533 1134.59V1108.55Z" fill="white"/>
<path d="M705.167 1099.92H665.833C663.118 1099.92 660.917 1102.12 660.917 1104.83V1114.67C660.917 1117.38 663.118 1119.58 665.833 1119.58H705.167C707.882 1119.58 710.083 1117.38 710.083 1114.67V1104.83C710.083 1102.12 707.882 1099.92 705.167 1099.92Z" stroke="#F36017" stroke-width="4" stroke-linecap="round" stroke-linejoin="round"/>
<path d="M705.167 1129.42H665.833C663.118 1129.42 660.917 1131.62 660.917 1134.33V1144.17C660.917 1146.88 663.118 1149.08 665.833 1149.08H705.167C707.882 1149.08 710.083 1146.88 710.083 1144.17V1134.33C710.083 1131.62 707.882 1129.42 705.167 1129.42Z" stroke="#F36017" stroke-width="4" stroke-linecap="round" stroke-linejoin="round"/>
<path d="M670.75 1109.75H670.774" stroke="#F36017" stroke-width="4" stroke-linecap="round" stroke-linejoin="round"/>
<path d="M670.75 1139.25H670.774" stroke="#F36017" stroke-width="4" stroke-linecap="round" stroke-linejoin="round"/>
<path d="M505.5 727C505.5 725.619 504.381 724.5 503 724.5C501.619 724.5 500.5 725.619 500.5 727H505.5ZM758.232 1064.77C759.209 1065.74 760.791 1065.74 761.768 1064.77L777.678 1048.86C778.654 1047.88 778.654 1046.3 777.678 1045.32C776.701 1044.35 775.118 1044.35 774.142 1045.32L760 1059.46L745.858 1045.32C744.882 1044.35 743.299 1044.35 742.322 1045.32C741.346 1046.3 741.346 1047.88 742.322 1048.86L758.232 1064.77ZM503 727H500.5V871H503H505.5V727H503ZM527 895V897.5H736V895V892.5H527V895ZM760 919H757.5V1063H760H762.5V919H760ZM736 895V897.5C747.874 897.5 757.5 907.126 757.5 919H760H762.5C762.5 904.364 750.636 892.5 736 892.5V895ZM503 871H500.5C500.5 885.636 512.364 897.5 527 897.5V895V892.5C515.126 892.5 505.5 882.874 505.5 871H503Z" fill="#7C7C7C"/>
<path d="M175.227 1331V1296.09H187.023C189.761 1296.09 192 1296.59 193.739 1297.57C195.489 1298.55 196.784 1299.88 197.625 1301.55C198.466 1303.22 198.886 1305.08 198.886 1307.14C198.886 1309.19 198.466 1311.06 197.625 1312.74C196.795 1314.43 195.511 1315.77 193.773 1316.77C192.034 1317.76 189.807 1318.25 187.091 1318.25H178.636V1314.5H186.955C188.83 1314.5 190.335 1314.18 191.472 1313.53C192.608 1312.88 193.432 1312.01 193.943 1310.9C194.466 1309.79 194.727 1308.53 194.727 1307.14C194.727 1305.74 194.466 1304.49 193.943 1303.39C193.432 1302.28 192.602 1301.42 191.455 1300.8C190.307 1300.16 188.784 1299.84 186.886 1299.84H179.455V1331H175.227ZM205.151 1331V1304.82H209.037V1308.77H209.31C209.787 1307.48 210.651 1306.43 211.901 1305.62C213.151 1304.81 214.56 1304.41 216.128 1304.41C216.423 1304.41 216.793 1304.41 217.236 1304.43C217.679 1304.44 218.014 1304.45 218.241 1304.48V1308.57C218.105 1308.53 217.793 1308.48 217.304 1308.41C216.827 1308.34 216.321 1308.3 215.787 1308.3C214.514 1308.3 213.378 1308.56 212.378 1309.1C211.389 1309.62 210.605 1310.35 210.026 1311.28C209.457 1312.2 209.173 1313.25 209.173 1314.43V1331H205.151ZM223.01 1331V1304.82H227.033V1331H223.01ZM225.055 1300.45C224.271 1300.45 223.595 1300.19 223.027 1299.65C222.47 1299.12 222.192 1298.48 222.192 1297.73C222.192 1296.98 222.47 1296.34 223.027 1295.8C223.595 1295.27 224.271 1295 225.055 1295C225.839 1295 226.51 1295.27 227.067 1295.8C227.635 1296.34 227.919 1296.98 227.919 1297.73C227.919 1298.48 227.635 1299.12 227.067 1299.65C226.51 1300.19 225.839 1300.45 225.055 1300.45ZM255.81 1304.82L246.128 1331H242.037L232.355 1304.82H236.719L243.946 1325.68H244.219L251.446 1304.82H255.81ZM268.027 1331.61C266.368 1331.61 264.862 1331.3 263.51 1330.68C262.158 1330.04 261.084 1329.12 260.288 1327.93C259.493 1326.73 259.095 1325.27 259.095 1323.57C259.095 1322.07 259.391 1320.85 259.982 1319.92C260.572 1318.98 261.362 1318.24 262.351 1317.7C263.339 1317.17 264.43 1316.77 265.624 1316.51C266.828 1316.24 268.038 1316.02 269.254 1315.86C270.845 1315.66 272.135 1315.51 273.124 1315.4C274.124 1315.29 274.851 1315.1 275.305 1314.84C275.771 1314.58 276.004 1314.12 276.004 1313.48V1313.34C276.004 1311.66 275.544 1310.35 274.624 1309.42C273.714 1308.49 272.334 1308.02 270.482 1308.02C268.561 1308.02 267.055 1308.44 265.964 1309.28C264.874 1310.12 264.107 1311.02 263.663 1311.98L259.845 1310.61C260.527 1309.02 261.436 1307.78 262.572 1306.9C263.72 1306 264.97 1305.37 266.322 1305.02C267.686 1304.66 269.027 1304.48 270.345 1304.48C271.186 1304.48 272.152 1304.58 273.243 1304.78C274.345 1304.98 275.408 1305.38 276.43 1305.99C277.464 1306.61 278.322 1307.53 279.004 1308.77C279.686 1310.01 280.027 1311.67 280.027 1313.75V1331H276.004V1327.45H275.8C275.527 1328.02 275.072 1328.63 274.436 1329.28C273.8 1329.93 272.953 1330.48 271.896 1330.93C270.839 1331.39 269.55 1331.61 268.027 1331.61ZM268.641 1328C270.232 1328 271.572 1327.69 272.663 1327.06C273.766 1326.44 274.595 1325.63 275.152 1324.64C275.72 1323.65 276.004 1322.61 276.004 1321.52V1317.84C275.834 1318.05 275.459 1318.23 274.879 1318.4C274.311 1318.56 273.652 1318.7 272.902 1318.83C272.163 1318.94 271.442 1319.05 270.737 1319.14C270.044 1319.22 269.482 1319.28 269.05 1319.34C268.004 1319.48 267.027 1319.7 266.118 1320.01C265.22 1320.3 264.493 1320.75 263.936 1321.35C263.391 1321.94 263.118 1322.75 263.118 1323.77C263.118 1325.17 263.635 1326.23 264.669 1326.94C265.714 1327.65 267.038 1328 268.641 1328ZM298.756 1304.82V1308.23H285.188V1304.82H298.756ZM289.142 1298.55H293.165V1323.5C293.165 1324.64 293.33 1325.49 293.659 1326.06C294 1326.61 294.432 1326.99 294.955 1327.18C295.489 1327.36 296.051 1327.45 296.642 1327.45C297.085 1327.45 297.449 1327.43 297.733 1327.39C298.017 1327.33 298.244 1327.28 298.415 1327.25L299.233 1330.86C298.96 1330.97 298.58 1331.07 298.091 1331.17C297.602 1331.28 296.983 1331.34 296.233 1331.34C295.097 1331.34 293.983 1331.1 292.892 1330.61C291.813 1330.12 290.915 1329.38 290.199 1328.38C289.494 1327.38 289.142 1326.11 289.142 1324.59V1298.55ZM315.503 1331.55C312.98 1331.55 310.804 1330.99 308.974 1329.88C307.156 1328.75 305.753 1327.18 304.764 1325.17C303.787 1323.15 303.298 1320.8 303.298 1318.11C303.298 1315.43 303.787 1313.07 304.764 1311.02C305.753 1308.97 307.128 1307.36 308.889 1306.22C310.662 1305.06 312.73 1304.48 315.094 1304.48C316.457 1304.48 317.804 1304.7 319.134 1305.16C320.463 1305.61 321.673 1306.35 322.764 1307.38C323.855 1308.39 324.724 1309.73 325.372 1311.4C326.02 1313.07 326.344 1315.12 326.344 1317.57V1319.27H306.162V1315.8H322.253C322.253 1314.32 321.957 1313 321.366 1311.84C320.787 1310.68 319.957 1309.77 318.878 1309.1C317.81 1308.43 316.548 1308.09 315.094 1308.09C313.491 1308.09 312.105 1308.49 310.935 1309.28C309.776 1310.07 308.884 1311.09 308.259 1312.35C307.634 1313.61 307.321 1314.97 307.321 1316.41V1318.73C307.321 1320.7 307.662 1322.38 308.344 1323.76C309.037 1325.12 309.997 1326.16 311.224 1326.88C312.452 1327.58 313.878 1327.93 315.503 1327.93C316.56 1327.93 317.514 1327.78 318.366 1327.49C319.23 1327.18 319.974 1326.73 320.599 1326.12C321.224 1325.51 321.707 1324.75 322.048 1323.84L325.935 1324.93C325.526 1326.25 324.838 1327.41 323.872 1328.41C322.906 1329.4 321.713 1330.17 320.293 1330.73C318.872 1331.27 317.276 1331.55 315.503 1331.55ZM374.19 1296.09V1331H370.099L351.077 1303.59H350.736V1331H346.509V1296.09H350.599L369.69 1323.57H370.031V1296.09H374.19ZM393.081 1331.55C390.558 1331.55 388.382 1330.99 386.553 1329.88C384.734 1328.75 383.331 1327.18 382.342 1325.17C381.365 1323.15 380.876 1320.8 380.876 1318.11C380.876 1315.43 381.365 1313.07 382.342 1311.02C383.331 1308.97 384.706 1307.36 386.467 1306.22C388.24 1305.06 390.308 1304.48 392.672 1304.48C394.036 1304.48 395.382 1304.7 396.712 1305.16C398.041 1305.61 399.251 1306.35 400.342 1307.38C401.433 1308.39 402.303 1309.73 402.95 1311.4C403.598 1313.07 403.922 1315.12 403.922 1317.57V1319.27H383.74V1315.8H399.831C399.831 1314.32 399.536 1313 398.945 1311.84C398.365 1310.68 397.536 1309.77 396.456 1309.1C395.388 1308.43 394.126 1308.09 392.672 1308.09C391.07 1308.09 389.683 1308.49 388.513 1309.28C387.354 1310.07 386.462 1311.09 385.837 1312.35C385.212 1313.61 384.899 1314.97 384.899 1316.41V1318.73C384.899 1320.7 385.24 1322.38 385.922 1323.76C386.615 1325.12 387.575 1326.16 388.803 1326.88C390.03 1327.58 391.456 1327.93 393.081 1327.93C394.138 1327.93 395.092 1327.78 395.945 1327.49C396.808 1327.18 397.553 1326.73 398.178 1326.12C398.803 1325.51 399.286 1324.75 399.626 1323.84L403.513 1324.93C403.104 1326.25 402.416 1327.41 401.45 1328.41C400.484 1329.4 399.291 1330.17 397.871 1330.73C396.45 1331.27 394.854 1331.55 393.081 1331.55ZM421.428 1304.82V1308.23H407.859V1304.82H421.428ZM411.814 1298.55H415.837V1323.5C415.837 1324.64 416.001 1325.49 416.331 1326.06C416.672 1326.61 417.104 1326.99 417.626 1327.18C418.161 1327.36 418.723 1327.45 419.314 1327.45C419.757 1327.45 420.121 1327.43 420.405 1327.39C420.689 1327.33 420.916 1327.28 421.087 1327.25L421.905 1330.86C421.632 1330.97 421.251 1331.07 420.763 1331.17C420.274 1331.28 419.655 1331.34 418.905 1331.34C417.768 1331.34 416.655 1331.1 415.564 1330.61C414.484 1330.12 413.587 1329.38 412.871 1328.38C412.166 1327.38 411.814 1326.11 411.814 1324.59V1298.55ZM433.411 1331L425.433 1304.82H429.661L435.32 1324.86H435.592L441.183 1304.82H445.479L451.001 1324.8H451.274L456.933 1304.82H461.161L453.183 1331H449.229L443.501 1310.89H443.092L437.365 1331H433.411ZM476.224 1331.55C473.861 1331.55 471.787 1330.98 470.003 1329.86C468.23 1328.73 466.844 1327.16 465.844 1325.14C464.855 1323.11 464.361 1320.75 464.361 1318.05C464.361 1315.32 464.855 1312.94 465.844 1310.9C466.844 1308.87 468.23 1307.29 470.003 1306.16C471.787 1305.04 473.861 1304.48 476.224 1304.48C478.588 1304.48 480.656 1305.04 482.429 1306.16C484.213 1307.29 485.599 1308.87 486.588 1310.9C487.588 1312.94 488.088 1315.32 488.088 1318.05C488.088 1320.75 487.588 1323.11 486.588 1325.14C485.599 1327.16 484.213 1328.73 482.429 1329.86C480.656 1330.98 478.588 1331.55 476.224 1331.55ZM476.224 1327.93C478.02 1327.93 479.497 1327.47 480.656 1326.55C481.815 1325.63 482.673 1324.42 483.23 1322.92C483.787 1321.42 484.065 1319.8 484.065 1318.05C484.065 1316.3 483.787 1314.66 483.23 1313.15C482.673 1311.64 481.815 1310.42 480.656 1309.49C479.497 1308.56 478.02 1308.09 476.224 1308.09C474.429 1308.09 472.952 1308.56 471.793 1309.49C470.634 1310.42 469.776 1311.64 469.219 1313.15C468.662 1314.66 468.384 1316.3 468.384 1318.05C468.384 1319.8 468.662 1321.42 469.219 1322.92C469.776 1324.42 470.634 1325.63 471.793 1326.55C472.952 1327.47 474.429 1327.93 476.224 1327.93ZM494.229 1331V1304.82H498.115V1308.77H498.388C498.865 1307.48 499.729 1306.43 500.979 1305.62C502.229 1304.81 503.638 1304.41 505.206 1304.41C505.501 1304.41 505.871 1304.41 506.314 1304.43C506.757 1304.44 507.092 1304.45 507.32 1304.48V1308.57C507.183 1308.53 506.871 1308.48 506.382 1308.41C505.905 1308.34 505.399 1308.3 504.865 1308.3C503.592 1308.3 502.456 1308.56 501.456 1309.1C500.467 1309.62 499.683 1310.35 499.104 1311.28C498.536 1312.2 498.251 1313.25 498.251 1314.43V1331H494.229ZM515.838 1321.45L515.77 1316.48H516.588L528.043 1304.82H533.02L520.815 1317.16H520.474L515.838 1321.45ZM512.088 1331V1296.09H516.111V1331H512.088ZM528.724 1331L518.497 1318.05L521.361 1315.25L533.838 1331H528.724Z" fill="white"/>
<circle cx="502.5" cy="842.5" r="22.5" fill="#7C7C7C"/>
<circle cx="502.5" cy="339.5" r="22.5" fill="#7C7C7C"/>
<circle cx="273.5" cy="707.5" r="22.5" fill="#7C7C7C"/>
<path d="M510 842H496C494.895 842 494 842.895 494 844V851C494 852.105 494.895 853 496 853H510C511.105 853 512 852.105 512 851V844C512 842.895 511.105 842 510 842Z" stroke="black" stroke-width="2" stroke-linecap="round" stroke-linejoin="round"/>
<path d="M498 842V838C498 836.674 498.527 835.402 499.464 834.464C500.402 833.527 501.674 833 503 833C504.326 833 505.598 833.527 506.536 834.464C507.473 835.402 508 836.674 508 838V842" stroke="black" stroke-width="2" stroke-linecap="round" stroke-linejoin="round"/>
<path d="M510 338H496C494.895 338 494 338.895 494 340V347C494 348.105 494.895 349 496 349H510C511.105 349 512 348.105 512 347V340C512 338.895 511.105 338 510 338Z" stroke="black" stroke-width="2" stroke-linecap="round" stroke-linejoin="round"/>
<path d="M498 338V334C498 332.674 498.527 331.402 499.464 330.464C500.402 329.527 501.674 329 503 329C504.326 329 505.598 329.527 506.536 330.464C507.473 331.402 508 332.674 508 334V338" stroke="black" stroke-width="2" stroke-linecap="round" stroke-linejoin="round"/>
<path d="M145.625 1321.33H135.792C134.434 1321.33 133.333 1322.43 133.333 1323.79V1333.63C133.333 1334.98 134.434 1336.08 135.792 1336.08H145.625C146.983 1336.08 148.083 1334.98 148.083 1333.63V1323.79C148.083 1322.43 146.983 1321.33 145.625 1321.33Z" stroke="white" stroke-width="4" stroke-linecap="round" stroke-linejoin="round"/>
<path d="M111.208 1321.33H101.375C100.017 1321.33 98.9165 1322.43 98.9165 1323.79V1333.63C98.9165 1334.98 100.017 1336.08 101.375 1336.08H111.208C112.566 1336.08 113.667 1334.98 113.667 1333.63V1323.79C113.667 1322.43 112.566 1321.33 111.208 1321.33Z" stroke="white" stroke-width="4" stroke-linecap="round" stroke-linejoin="round"/>
<path d="M128.417 1286.92H118.583C117.226 1286.92 116.125 1288.02 116.125 1289.37V1299.21C116.125 1300.57 117.226 1301.67 118.583 1301.67H128.417C129.774 1301.67 130.875 1300.57 130.875 1299.21V1289.37C130.875 1288.02 129.774 1286.92 128.417 1286.92Z" stroke="white" stroke-width="4" stroke-linecap="round" stroke-linejoin="round"/>
<path d="M106.292 1321.33V1313.96C106.292 1313.31 106.551 1312.68 107.012 1312.22C107.473 1311.76 108.098 1311.5 108.75 1311.5H138.25C138.902 1311.5 139.527 1311.76 139.988 1312.22C140.449 1312.68 140.708 1313.31 140.708 1313.96V1321.33" stroke="white" stroke-width="4" stroke-linecap="round" stroke-linejoin="round"/>
<path d="M123.5 1311.5V1301.67" stroke="white" stroke-width="4" stroke-linecap="round" stroke-linejoin="round"/>
<path d="M281 706H267C265.895 706 265 706.895 265 708V715C265 716.105 265.895 717 267 717H281C282.105 717 283 716.105 283 715V708C283 706.895 282.105 706 281 706Z" stroke="black" stroke-width="2" stroke-linecap="round" stroke-linejoin="round"/>
<path d="M269 706V702C269 700.674 269.527 699.402 270.464 698.464C271.402 697.527 272.674 697 274 697C275.326 697 276.598 697.527 277.536 698.464C278.473 699.402 279 700.674 279 702V706" stroke="black" stroke-width="2" stroke-linecap="round" stroke-linejoin="round"/>
<defs>
<filter id="filter0_d_17_178" x="11" y="41" width="67" height="67" filterUnits="userSpaceOnUse" color-interpolation-filters="sRGB">
<feFlood flood-opacity="0" result="BackgroundImageFix"/>
<feColorMatrix in="SourceAlpha" type="matrix" values="0 0 0 0 0 0 0 0 0 0 0 0 0 0 0 0 0 0 127 0" result="hardAlpha"/>
<feOffset dy="4"/>
<feGaussianBlur stdDeviation="2"/>
<feComposite in2="hardAlpha" operator="out"/>
<feColorMatrix type="matrix" values="0 0 0 0 0 0 0 0 0 0 0 0 0 0 0 0 0 0 0.25 0"/>
<feBlend mode="normal" in2="BackgroundImageFix" result="effect1_dropShadow_17_178"/>
<feBlend mode="normal" in="SourceGraphic" in2="effect1_dropShadow_17_178" result="shape"/>
</filter>
<filter id="filter1_d_17_178" x="31" y="27" width="67" height="67" filterUnits="userSpaceOnUse" color-interpolation-filters="sRGB">
<feFlood flood-opacity="0" result="BackgroundImageFix"/>
<feColorMatrix in="SourceAlpha" type="matrix" values="0 0 0 0 0 0 0 0 0 0 0 0 0 0 0 0 0 0 127 0" result="hardAlpha"/>
<feOffset dy="4"/>
<feGaussianBlur stdDeviation="2"/>
<feComposite in2="hardAlpha" operator="out"/>
<feColorMatrix type="matrix" values="0 0 0 0 0 0 0 0 0 0 0 0 0 0 0 0 0 0 0.25 0"/>
<feBlend mode="normal" in2="BackgroundImageFix" result="effect1_dropShadow_17_178"/>
<feBlend mode="normal" in="SourceGraphic" in2="effect1_dropShadow_17_178" result="shape"/>
</filter>
<filter id="filter2_d_17_178" x="746" y="41" width="67" height="67" filterUnits="userSpaceOnUse" color-interpolation-filters="sRGB">
<feFlood flood-opacity="0" result="BackgroundImageFix"/>
<feColorMatrix in="SourceAlpha" type="matrix" values="0 0 0 0 0 0 0 0 0 0 0 0 0 0 0 0 0 0 127 0" result="hardAlpha"/>
<feOffset dy="4"/>
<feGaussianBlur stdDeviation="2"/>
<feComposite in2="hardAlpha" operator="out"/>
<feColorMatrix type="matrix" values="0 0 0 0 0 0 0 0 0 0 0 0 0 0 0 0 0 0 0.25 0"/>
<feBlend mode="normal" in2="BackgroundImageFix" result="effect1_dropShadow_17_178"/>
<feBlend mode="normal" in="SourceGraphic" in2="effect1_dropShadow_17_178" result="shape"/>
</filter>
<filter id="filter3_d_17_178" x="766" y="27" width="67" height="67" filterUnits="userSpaceOnUse" color-interpolation-filters="sRGB">
<feFlood flood-opacity="0" result="BackgroundImageFix"/>
<feColorMatrix in="SourceAlpha" type="matrix" values="0 0 0 0 0 0 0 0 0 0 0 0 0 0 0 0 0 0 127 0" result="hardAlpha"/>
<feOffset dy="4"/>
<feGaussianBlur stdDeviation="2"/>
<feComposite in2="hardAlpha" operator="out"/>
<feColorMatrix type="matrix" values="0 0 0 0 0 0 0 0 0 0 0 0 0 0 0 0 0 0 0.25 0"/>
<feBlend mode="normal" in2="BackgroundImageFix" result="effect1_dropShadow_17_178"/>
<feBlend mode="normal" in="SourceGraphic" in2="effect1_dropShadow_17_178" result="shape"/>
</filter>
<filter id="filter4_d_17_178" x="379" y="41" width="67" height="67" filterUnits="userSpaceOnUse" color-interpolation-filters="sRGB">
<feFlood flood-opacity="0" result="BackgroundImageFix"/>
<feColorMatrix in="SourceAlpha" type="matrix" values="0 0 0 0 0 0 0 0 0 0 0 0 0 0 0 0 0 0 127 0" result="hardAlpha"/>
<feOffset dy="4"/>
<feGaussianBlur stdDeviation="2"/>
<feComposite in2="hardAlpha" operator="out"/>
<feColorMatrix type="matrix" values="0 0 0 0 0 0 0 0 0 0 0 0 0 0 0 0 0 0 0.25 0"/>
<feBlend mode="normal" in2="BackgroundImageFix" result="effect1_dropShadow_17_178"/>
<feBlend mode="normal" in="SourceGraphic" in2="effect1_dropShadow_17_178" result="shape"/>
</filter>
<filter id="filter5_d_17_178" x="399" y="27" width="67" height="67" filterUnits="userSpaceOnUse" color-interpolation-filters="sRGB">
<feFlood flood-opacity="0" result="BackgroundImageFix"/>
<feColorMatrix in="SourceAlpha" type="matrix" values="0 0 0 0 0 0 0 0 0 0 0 0 0 0 0 0 0 0 127 0" result="hardAlpha"/>
<feOffset dy="4"/>
<feGaussianBlur stdDeviation="2"/>
<feComposite in2="hardAlpha" operator="out"/>
<feColorMatrix type="matrix" values="0 0 0 0 0 0 0 0 0 0 0 0 0 0 0 0 0 0 0.25 0"/>
<feBlend mode="normal" in2="BackgroundImageFix" result="effect1_dropShadow_17_178"/>
<feBlend mode="normal" in="SourceGraphic" in2="effect1_dropShadow_17_178" result="shape"/>
</filter>
<clipPath id="clip0_17_178">
<rect width="91" height="97" fill="white" transform="translate(460 503)"/>
</clipPath>
</defs>
</svg>
